<?xml version="1.0" standalone="no"?>
<!DOCTYPE svg PUBLIC "-//W3C//DTD SVG 20010904//EN"
 "http://www.w3.org/TR/2001/REC-SVG-20010904/DTD/svg10.dtd">
<svg version="1.0" xmlns="http://www.w3.org/2000/svg"
 width="801.000000pt" height="583.000000pt" viewBox="0 0 801.000000 583.000000"
 preserveAspectRatio="xMidYMid meet">

<g transform="translate(0.000000,583.000000) scale(0.100000,-0.100000)"
fill="#000000" stroke="none">
<path d="M7 5823 c-4 -3 -7 -1315 -7 -2915 l0 -2908 4005 0 4005 0 -2 2912 -3
2913 -3996 3 c-2198 1 -3999 -1 -4002 -5z m1743 -2694 c229 -496 320 -694 320
-701 0 -5 -15 -8 -33 -8 -34 0 -34 1 -95 133 -157 342 -286 625 -300 660 -8
20 -18 37 -21 37 -6 0 -127 -258 -302 -647 l-82 -183 -39 0 -38 0 24 48 c13
26 82 175 154 332 71 157 157 343 191 413 60 128 60 128 93 125 31 -3 34 -7
128 -209z m868 -104 c133 -170 273 -348 310 -395 l67 -85 3 398 2 398 33 -3
32 -3 3 -458 2 -458 -32 3 c-35 3 -34 1 -294 334 -297 378 -346 439 -354 442
-6 2 -10 -142 -10 -387 l0 -391 -30 0 -30 0 0 461 0 460 27 -3 c23 -2 69 -56
271 -313z m912 -145 l0 -460 -35 0 -35 0 0 460 0 460 35 0 35 0 0 -460z m577
233 c247 -429 278 -482 285 -475 3 4 66 111 139 237 265 461 268 465 293 465
22 0 23 -3 29 -137 4 -75 7 -282 7 -460 l0 -323 -35 0 -35 0 -2 388 -3 387
-50 -85 c-28 -47 -114 -194 -190 -328 -114 -197 -144 -242 -160 -240 -12 2
-35 31 -65 83 -26 44 -110 190 -188 325 l-142 245 0 -388 0 -387 -35 0 -35 0
0 460 0 460 28 0 c26 0 37 -16 159 -227z m1733 197 l0 -30 -295 0 -295 0 0 30
0 30 295 0 295 0 0 -30z m461 -165 c79 -107 146 -195 150 -195 3 0 70 88 149
195 137 185 146 195 177 195 18 0 33 -4 33 -9 0 -4 -17 -30 -37 -57 -21 -27
-89 -119 -152 -204 -62 -85 -117 -160 -122 -166 -6 -7 52 -92 157 -235 92
-123 171 -230 176 -236 8 -10 1 -13 -30 -13 l-40 0 -152 205 c-83 112 -154
207 -159 209 -4 3 -77 -89 -162 -204 -153 -209 -154 -210 -192 -210 -28 0 -36
3 -31 13 4 6 79 108 167 226 87 118 161 220 164 227 3 7 -65 108 -151 224 -86
116 -156 216 -156 221 0 5 15 9 33 9 32 0 41 -10 178 -195z m-461 -260 l0 -25
-295 0 -295 0 0 25 0 25 295 0 295 0 0 -25z m0 -435 l0 -30 -295 0 -295 0 0
30 0 30 295 0 295 0 0 -30z"/>
</g>
</svg>
